<svg id="color" enable-background="new 0 0 24 24" height="512" viewBox="0 0 24 24" width="512" xmlns="http://www.w3.org/2000/svg"><path d="m.75 7c-.192 0-.384-.073-.53-.22-.293-.293-.293-.768 0-1.061l2.5-2.5c.239-.24.608-.29.902-.121l1.273.728 2.305-2.127c.305-.28.778-.262 1.06.042.281.305.262.779-.042 1.06l-2.708 2.5c-.24.222-.596.263-.881.1l-1.254-.715-2.095 2.094c-.146.147-.338.22-.53.22z" fill="#4caf50"/><path d="m8.25 5c-.195 0-.387-.076-.53-.22l-2.5-2.5c-.215-.214-.279-.537-.163-.817s.39-.463.693-.463h2.5c.414 0 .75.336.75.75v2.5c0 .303-.183.577-.463.693-.093.038-.19.057-.287.057z" fill="#4caf50"/><path d="m13 18v3c0 1.97-3.271 3-6.5 3-3.23 0-6.5-1.03-6.5-3v-3z" fill="#ffc107"/><path d="m13 17v2c0 1.97-3.271 3-6.5 3-3.23 0-6.5-1.03-6.5-3v-2z" fill="#ffd54f"/><path d="m13 15v2c0 1.97-3.271 3-6.5 3-3.23 0-6.5-1.03-6.5-3v-2z" fill="#ffc107"/><path d="m0 15c0 1.657 2.91 3 6.5 3s6.5-1.343 6.5-3-2.91-3-6.5-3-6.5 1.343-6.5 3z" fill="#ffd54f"/><path d="m0 18v3c0 1.97 3.27 3 6.5 3v-2c-3.23 0-6.5-1.03-6.5-3z" fill="#dea806"/><path d="m0 17v1 1c0 1.97 3.27 3 6.5 3v-2c-3.23 0-6.5-1.03-6.5-3z" fill="#deb945"/><path d="m0 15v2c0 1.97 3.27 3 6.5 3v-2c-3.59 0-6.5-1.343-6.5-3z" fill="#dea806"/><path d="m6.5 12c-3.59 0-6.5 1.343-6.5 3 0 1.657 2.91 3 6.5 3z" fill="#deb945"/><path d="m14.33 14c.109.32.17.65.17 1v4.82c.8.12 1.649.18 2.5.18 3.479 0 7-1.03 7-3v-3z" fill="#ffc107"/><path d="m13.74 13c.21.24.37.5.49.77l.09.23h.01c.11.32.17.65.17 1v2.82c.8.12 1.65.18 2.5.18 3.48 0 7-1.03 7-3v-2z" fill="#ffd54f"/><path d="m10 10v.91c1.68.42 2.979 1.149 3.74 2.09.21.24.369.5.489.77l.09.23h.011c.109.32.17.65.17 1v.82c.8.12 1.649.18 2.5.18 2.83 0 5.7-.68 6.66-2 .22-.3.34-.63.34-1v-3z" fill="#ffc107"/><path d="m10 9v1.91c1.68.42 2.979 1.149 3.74 2.09.21.24.369.5.489.77.871.15 1.821.23 2.771.23 2 0 4.01-.34 5.35-1 1.01-.49 1.65-1.16 1.65-2v-2z" fill="#ffd54f"/><path d="m24 6v3c0 1.97-3.521 3-7 3s-7-1.03-7-3v-3z" fill="#ffc107"/><path d="m24 5v2c0 1.97-3.521 3-7 3s-7-1.03-7-3v-2z" fill="#ffd54f"/><path d="m24 3v2c0 1.97-3.521 3-7 3s-7-1.03-7-3v-2z" fill="#ffc107"/><path d="m10 3c0 1.657 3.134 3 7 3s7-1.343 7-3-3.134-3-7-3-7 1.343-7 3z" fill="#ffd54f"/><path d="m14.33 14c.109.32.17.65.17 1v4.82c.8.12 1.649.18 2.5.18v-2c-.85 0-1.7-.06-2.5-.18v-2.82c0-.35-.061-.68-.17-1z" fill="#dea806"/><path d="m14.5 15v2.82c.8.12 1.65.18 2.5.18v-2c-.851 0-1.7-.06-2.5-.18z" fill="#deb945"/><path d="m10 10v.91c1.68.42 2.979 1.149 3.74 2.09.002.002.003.004.005.006.208.239.365.496.484.764l.09.23h.001.01c.109.32.17.65.17 1v.82c.8.12 1.649.18 2.5.18v-2c-.95 0-1.9-.08-2.77-.23-.121-.27-.28-.53-.49-.77-.761-.94-2.061-1.67-3.74-2.09z" fill="#dea806"/><path d="m10 9v1 .91c1.68.42 2.979 1.149 3.74 2.09.21.24.369.5.489.77.871.15 1.821.23 2.771.23v-2c-3.479 0-7-1.03-7-3z" fill="#deb945"/><path d="m10 6v3c0 1.97 3.52 3 7 3v-2c-3.479 0-7-1.03-7-3z" fill="#dea806"/><path d="m10 5v1 1c0 1.97 3.52 3 7 3v-2c-3.479 0-7-1.03-7-3z" fill="#deb945"/><path d="m10 3v2c0 1.97 3.52 3 7 3v-2c-3.866 0-7-1.343-7-3z" fill="#dea806"/><path d="m17 0c-3.866 0-7 1.343-7 3 0 1.657 3.134 3 7 3z" fill="#deb945"/><g fill="#429846"><path d="m6.388 3.449-1.388 1.301-1.418-.811c-.078-.044-.163-.065-.248-.065-.13 0-.258.05-.354.146l-2.76 2.76c.146.147.338.22.53.22s.384-.073.53-.22l2.095-2.095 1.252.716c.117.067.246.1.373.1.184 0 .367-.068.509-.199l1.42-1.312z"/><path d="m8.773 1.213-2.385 2.236.541.541.79.79c.144.144.336.22.531.22.097 0 .194-.019.287-.057.28-.116.463-.39.463-.693v-2.5c0-.211-.087-.401-.227-.537z"/></g></svg>